Handy Man, mit Marco Rima (Schweizerdeutsch)


Aufgenommen vom Schweizer Fernsehen SF1 am 16.12.2007 (KEIN HD!!!)
ohne Werbeblock


General
Complete name                            : Handy Man [SF1 16-12-2007].avi
Format                                   : AVI
Format/Info                              : Audio Video Interleave
File size                                : 349 MiB
Duration                                 : 1h 26mn
Overall bit rate                         : 566 Kbps

Video
ID                                       : 0
Format                                   : MPEG-4 Visual
Format profile                           : Advanced Simple@L5
Format settings, BVOP                    : 2
Format settings, QPel                    : No
Format settings, GMC                     : No warppoints
Format settings, Matrix                  : Default (H.263)
Codec ID                                 : XVID
Codec ID/Hint                            : XviD
Duration                                 : 1h 26mn
Bit rate                                 : 425 Kbps
Width                                    : 640 pixels
Height                                   : 264 pixels
Display aspect ratio                     : 2.40:1
Frame rate                               : 25.000 fps
Color space                              : YUV
Chroma subsampling                       : 4:2:0
Bit depth                                : 8 bits
Scan type                                : Progressive
Compression mode                         : Lossy
Bits/(Pixel*Frame)                       : 0.101
Stream size                              : 263 MiB (75%)
Writing library                          : XviD 63

Audio
ID                                       : 1
Format                                   : MPEG Audio
Format version                           : Version 1
Format profile                           : Layer 3
Codec ID                                 : 55
Codec ID/Hint                            : MP3
Duration                                 : 1h 26mn
Bit rate mode                            : Constant
Bit rate                                 : 128 Kbps
Channel(s)                               : 2 channels
Sampling rate                            : 44.1 KHz
Compression mode                         : Lossy
Stream size                              : 79.0 MiB (23%)
Alignment                                : Split accross interleaves
Interleave, duration                     : 26 ms (0.65 video frame)
Writing library                          : LAME3.98.4